<svg role="img" viewBox="0 0 24 24" xmlns="http://www.w3.org/2000/svg"><title>Continuous Machine Learning icon</title><path d="M6.8574 5.1426C3.0704 5.1426 0 8.2129 0 12s3.0703 6.8574 6.8574 6.8574c.7101 0 1.3904-.1127 2.039-.3086.2163-.0653.4275-.14.6368-.2226 2.3559-.9297 4.2421-2.8597 5.664-4.248.1187.1094.1798.166.3028.2792 1.2143 1.0714 2.0008 2.0703 4.0723 2.0703a4.449 4.449 0 00.8925-.0898C22.4828 15.9249 24 14.14 24 12c0-2.4458-1.9819-4.4277-4.4277-4.4277-2.0715 0-2.858.9989-4.0723 2.0703-.123.1133-.1841.1698-.3027.2793-.4114-.4017-.8357-.8252-1.3282-1.2832-1.8144-1.6875-4.1714-3.4961-7.0117-3.4961zm0 3c1.7226 0 2.8794.9098 6.084 3.8574-3.2046 2.9475-4.3614 3.8574-6.084 3.8574C4.7272 15.8574 3 14.1302 3 12c0-.2663.0267-.5263.0781-.7773.3597-1.7577 1.9153-3.0801 3.7793-3.0801zm12.7149 2.4297C20.3613 10.5723 21 11.211 21 12c0 .789-.6387 1.4277-1.4277 1.4277-.6777 0-1.5287-.6745-2.3125-1.4277.7838-.7533 1.6347-1.4277 2.3125-1.4277z"/></svg>