<svg role="img" viewBox="0 0 24 24" xmlns="http://www.w3.org/2000/svg"><title>Data Version Control icon</title><path d="M0 15.968V4.828a.307.307 0 01.089-.226.266.266 0 01.201-.095h3.922c1.609.118 2.808.588 3.913 1.738s1.55 2.456 1.69 4.138c.136 1.615-.514 3.018-1.617 4.172-1.102 1.155-2.435 1.735-3.986 1.735H.29a.266.266 0 01-.201-.095.307.307 0 01-.089-.227zm2.508-8.433v6.263H4.05c.901 0 1.65-.329 2.244-.985.594-.657.891-1.467.89-2.43 0-.953-.298-1.76-.89-2.417-.593-.656-1.343-.984-2.245-.984H2.51v.554zm13.26 7.067c-1.144-1.144-1.667-2.534-1.667-4.174 0-1.641.523-3.036 1.667-4.191 1.144-1.155 2.532-1.73 4.159-1.73 1.518 0 2.83.509 3.937 1.526.165.155.17.306.018.46l-1.27 1.327c-.14.13-.276.13-.407 0a3.183 3.183 0 00-2.197-.836c-.912 0-1.671.331-2.278.993-.609.66-.875 1.455-.875 2.384 0 .92.269 1.703.883 2.354.614.65 1.374.974 2.286.974.846 0 1.573-.262 2.181-.786.152-.13.293-.125.423.016l1.27 1.36c.141.144.136.29-.016.444-1.086 1.06-2.405 1.59-3.955 1.591-1.627 0-3.014-.571-4.16-1.714v.002zm.41-3.91l-1.485 3.278c-.695-1.037-1.016-2.223-1.016-3.542 0-.123.002-.246.008-.369l.964-2.197c.041-.122.133-.183.274-.183l1.254 3.012zM9.195 14.04l-1.693-3.764 1.448-2.598c.14 0 .232.06.274.183l1.016 2.32.016.162c.118 1.38-.295 2.623-1.06 3.697zm6.981-3.349l-3.9 8.619c-.066.122-.157.182-.275.182h-.161c-.118 0-.21-.06-.275-.182l-4.063-9.034 1.448-2.598c.14 0 .232.06.274.183l2.662 6.075h.1l2.662-6.075c.041-.123.133-.183.274-.183l1.254 3.013z"/></svg>