<svg role="img" viewBox="0 0 24 24" xmlns="http://www.w3.org/2000/svg"><title>DVC Studio icon</title><path d="M6.6054 12.4834l.7426-1.0904c.7785-1.143 2.3876-1.6182 3.1002-.433l2.737 4.5527c.254.4224.8253.4798 1.1613.1561l-.6762.9804c-.772 1.1195-2.3556 1.5747-3.0562.4092l-2.737-4.5526c-.2855-.475-.9697-.487-1.2717-.0224zl.7426-1.0904c.7785-1.143 2.3876-1.6182 3.1002-.433l2.737 4.5527c.254.4224.8253.4798 1.1613.1561l-.6762.9804c-.772 1.1195-2.3556 1.5747-3.0562.4092l-2.737-4.5526c-.2855-.475-.9697-.487-1.2717-.0224zm5.6894 1.5483l.8904 1.481c.2817.4685.954.488 1.2621.0364l6.814-9.9798c.4672-.6842 1.4005-.8601 2.0846-.393.6842.4672.8601 1.4005.393 2.0846l-6.814 9.9799c-1.5413 2.2574-4.9024 2.1603-6.3108-.1824l-.3747-.6233 2.0554-2.4034zl.8904 1.481c.2817.4685.954.488 1.2621.0364l6.814-9.9798c.4672-.6842 1.4005-.8601 2.0846-.393.6842.4672.8601 1.4005.393 2.0846l-6.814 9.9799c-1.5413 2.2574-4.9024 2.1603-6.3108-.1824l-.3747-.6233 2.0554-2.4034zm-3.7374-.3942l-.6804-1.1317c-.2854-.475-.9696-.487-1.2715-.0224l-3.8477 5.9194c-.4514.6946-1.3805.8917-2.0751.4402-.6946-.4515-.8917-1.3806-.4402-2.0751l3.8476-5.9194c1.5099-2.323 4.9306-2.263 6.358.1115l.0937.1557-1.9844 2.5218zl-.6804-1.1317c-.2854-.475-.9696-.487-1.2715-.0224l-3.8477 5.9194c-.4514.6946-1.3805.8917-2.0751.4402-.6946-.4515-.8917-1.3806-.4402-2.0751l3.8476-5.9194c1.5099-2.323 4.9306-2.263 6.358.1115l.0937.1557-1.9844 2.5218z"/></svg>
