<svg role="img" viewBox="0 0 24 24" xmlns="http://www.w3.org/2000/svg"><title>Iterative icon</title><path d="M7.4434 0C6.4128 0 5.382.3934 4.5957 1.1797l-3.416 3.416c-1.5726 1.5727-1.5726 4.1226 0 5.6953L2.8887 12l-1.709 1.709c-1.5726 1.5727-1.5726 4.1226 0 5.6953l3.416 3.416c1.5727 1.5726 4.1227 1.5726 5.6953 0l1.6973-1.6973.0117.0079-.0098-.0098.004-.004-2.2774-2.2773-1.7031 1.7032a.805.805 0 01-1.1387 0l-3.418-3.418a.805.805 0 010-1.1387l1.709-1.709.6348.6348v.002l7.9082 7.9062c1.5727 1.5726 4.1226 1.5726 5.6953 0l3.416-3.416c1.5726-1.5727 1.5726-4.1226 0-5.6953L21.1113 12l1.709-1.709c1.5726-1.5727 1.5726-4.1226 0-5.6953l-3.416-3.416c-1.5727-1.5726-4.1226-1.5726-5.6953 0l-1.7031 1.7031.0644.0645-.0254-.0137-1.7539-1.754C9.5047.3935 8.474 0 7.4434 0zm0 3.2207c.206 0 .413.079.5703.2363l1.709 1.709L5.166 9.7227l-.627-.627-1.082-1.082a.805.805 0 010-1.1387l3.418-3.418a.8008.8008 0 01.5684-.2363zm9.1132 0c.2062 0 .4112.079.5684.2363l3.418 3.418a.805.805 0 010 1.1387l-1.709 1.709-.6113-.6114-3.9356-3.9355.6387-.6367-.0137-.0079 1.0742-1.0742a.8052.8052 0 01.5703-.2363zM12 7.4434L16.5566 12 12 16.5566 7.4434 12l4.5449-4.545L12 7.463l-.0098-.0098L12 7.4434zm6.834 6.834l1.709 1.709a.805.805 0 010 1.1386l-3.418 3.418a.805.805 0 01-1.1387 0l-1.6992-1.6992.627-.625-.0137-.0079 3.9336-3.9336z"/></svg>